<svg xmlns="http://www.w3.org/2000/svg" version="1.1" xmlns:xlink="http://www.w3.org/1999/xlink" xmlns:svgjs="http://svgjs.dev/svgjs" width="1500" height="1500" viewBox="0 0 1500 1500"><rect width="1500" height="1500" fill="#ffffff"></rect><g transform="matrix(0.6666666666666666,0,0,0.6666666666666666,249.3939393939396,621.0473247596409)"><svg viewBox="0 0 396 102" data-background-color="#ffffff" preserveAspectRatio="xMidYMid meet" height="386" width="1500" xmlns="http://www.w3.org/2000/svg" xmlns:xlink="http://www.w3.org/1999/xlink"><g id="tight-bounds" transform="matrix(1,0,0,1,0.23999999999992383,0.11336609268121833)"><svg viewBox="0 0 395.5199999999999 101.77326781463758" height="101.77326781463758" width="395.5199999999999"><g><svg viewBox="0 0 688.96363385603 177.28074540598618" height="101.77326781463758" width="395.5199999999999"><g><rect width="11.568278273835812" height="153.9340770529547" x="425.8034509786278" y="11.673334176515738" fill="#000000" opacity="1" stroke-width="0" stroke="transparent" fill-opacity="1" class="rect-qz-0" data-fill-palette-color="primary" rx="1%" id="qz-0" data-palette-color="#636365"></rect></g><g transform="matrix(1,0,0,1,0,24.50117393092863)"><svg viewBox="0 0 395.52 128.27839754412892" height="128.27839754412892" width="395.52"><g id="textblocktransform"><svg viewBox="0 0 395.52 128.27839754412892" height="128.27839754412892" width="395.52" id="textblock"><g><svg viewBox="0 0 395.52 128.27839754412892" height="128.27839754412892" width="395.52"><g transform="matrix(1,0,0,1,0,0)"><svg width="395.52" viewBox="3.98 -38.57 159.05 51.58" height="128.27839754412892" data-palette-color="#636365"><path d="M29.22-4.49L29.22 0 3.98 0 3.98-35.16 29.22-35.16 29.22-30.66 13.67-30.66 13.67-19.8 25.68-19.8 25.68-15.33 13.67-15.33 13.67-4.49 29.22-4.49ZM58.59-9.01L58.59-9.01Q58.59-7.15 58.05-5.71 57.52-4.27 56.59-3.21 55.66-2.15 54.39-1.43 53.12-0.71 51.67-0.27 50.22 0.17 48.63 0.37 47.04 0.56 45.48 0.56L45.48 0.56Q43.38 0.56 41.77 0.29 40.16 0.02 38.69-0.57 37.23-1.17 35.78-2.12 34.32-3.08 32.54-4.44L32.54-4.44 37.35-8.37Q38.01-7.13 39.1-6.12 40.18-5.1 41.35-4.37 42.53-3.64 43.63-3.25 44.72-2.86 45.41-2.86L45.41-2.86Q45.97-2.86 46.68-2.89 47.39-2.93 48.12-3.04 48.85-3.15 49.56-3.37 50.27-3.59 50.82-3.97 51.36-4.35 51.69-4.92 52.02-5.49 52.02-6.3L52.02-6.3Q52.02-7.13 51.6-7.75 51.17-8.37 50.49-8.84 49.8-9.3 48.92-9.62 48.04-9.94 47.15-10.18 46.26-10.42 45.43-10.61 44.6-10.79 43.99-10.96L43.99-10.96Q42.87-11.28 41.62-11.61 40.38-11.94 39.16-12.37 37.94-12.79 36.83-13.38 35.72-13.96 34.87-14.78 34.03-15.6 33.53-16.71 33.03-17.82 33.03-19.31L33.03-19.31Q33.03-22.05 34.12-23.89 35.2-25.73 36.98-26.84 38.77-27.95 41.04-28.42 43.31-28.88 45.65-28.88L45.65-28.88Q47.26-28.88 49.05-28.55 50.83-28.22 52.51-27.58 54.2-26.93 55.66-26 57.13-25.07 58.1-23.88L58.1-23.88 53.29-19.92Q52.76-21.39 51.89-22.44 51.02-23.49 50.01-24.16 49-24.83 47.93-25.15 46.87-25.46 45.97-25.46L45.97-25.46Q45.09-25.46 43.99-25.39 42.89-25.32 41.93-24.98 40.96-24.63 40.29-23.94 39.62-23.24 39.62-22.02L39.62-22.02Q39.62-21.14 40.02-20.52 40.43-19.9 41.09-19.45 41.75-18.99 42.59-18.69 43.43-18.38 44.31-18.15 45.19-17.92 46.02-17.75 46.85-17.58 47.51-17.38L47.51-17.38Q48.63-17.07 49.89-16.74 51.14-16.41 52.37-15.98 53.59-15.55 54.72-14.98 55.86-14.4 56.71-13.57 57.57-12.74 58.08-11.63 58.59-10.52 58.59-9.01ZM92.62-16.16L92.62-16.16Q92.62-13.31 91.93-10.21 91.23-7.1 89.99-4.13 88.74-1.15 87.01 1.48 85.27 4.1 83.2 6.01L83.2 6.01 80.1 4.32Q80.76 3.1 81.34 1.59 81.93 0.07 82.4-1.62 82.88-3.32 83.26-5.13 83.64-6.93 83.89-8.7 84.15-10.47 84.28-12.15 84.42-13.82 84.42-15.26L84.42-15.26Q84.42-16.21 84.35-17.3 84.27-18.38 84.04-19.47 83.81-20.56 83.42-21.56 83.03-22.56 82.38-23.32 81.73-24.07 80.82-24.54 79.9-25 78.66-25L78.66-25Q77.44-25 76.48-24.45 75.53-23.9 74.8-23.01 74.07-22.12 73.54-20.97 73.02-19.82 72.69-18.62 72.36-17.41 72.21-16.24 72.07-15.06 72.07-14.14L72.07-14.14 72.07 0 63.79 0 63.79-38.57 72.04-38.57 72.04-24.05Q73.63-26.37 75.93-27.62 78.24-28.88 81.05-28.88L81.05-28.88Q83.98-28.88 86.15-27.93 88.33-26.98 89.77-25.28 91.21-23.58 91.91-21.25 92.62-18.92 92.62-16.16ZM127.85-14.16L127.85-14.16Q127.85-11.96 127.26-10.03 126.68-8.11 125.64-6.47 124.6-4.83 123.14-3.53 121.67-2.22 119.93-1.32 118.18-0.42 116.19 0.07 114.2 0.56 112.1 0.56L112.1 0.56Q110 0.56 108.02 0.07 106.05-0.42 104.3-1.32 102.56-2.22 101.09-3.53 99.63-4.83 98.59-6.47 97.55-8.11 96.97-10.05 96.38-11.99 96.38-14.16L96.38-14.16Q96.38-16.33 96.97-18.27 97.55-20.21 98.59-21.85 99.63-23.49 101.09-24.79 102.56-26.1 104.3-27 106.05-27.91 108.02-28.39 110-28.88 112.1-28.88L112.1-28.88Q114.2-28.88 116.19-28.39 118.18-27.91 119.93-27 121.67-26.1 123.14-24.79 124.6-23.49 125.64-21.85 126.68-20.21 127.26-18.27 127.85-16.33 127.85-14.16ZM119.45-14.16L119.45-14.16Q119.45-15.33 119.32-16.64 119.18-17.94 118.86-19.2 118.55-20.46 118-21.62 117.45-22.78 116.64-23.65 115.84-24.51 114.71-25.04 113.59-25.56 112.1-25.56L112.1-25.56Q110.69-25.56 109.59-25.02 108.49-24.49 107.67-23.6 106.85-22.71 106.3-21.53 105.75-20.36 105.41-19.1 105.07-17.85 104.92-16.56 104.78-15.28 104.78-14.16L104.78-14.16Q104.78-13.04 104.92-11.76 105.07-10.47 105.41-9.2 105.75-7.93 106.3-6.77 106.85-5.62 107.67-4.72 108.49-3.83 109.59-3.3 110.69-2.76 112.1-2.76L112.1-2.76Q113.57-2.76 114.69-3.28 115.81-3.81 116.63-4.69 117.45-5.57 117.99-6.71 118.52-7.86 118.85-9.13 119.18-10.4 119.32-11.69 119.45-12.99 119.45-14.16ZM163.03-14.16L163.03-14.16Q163.03-11.08 162.1-8.4 161.17-5.71 159.41-3.72 157.66-1.73 155.12-0.59 152.58 0.56 149.36 0.56L149.36 0.56Q146.89 0.56 144.83-0.4 142.76-1.37 141.3-3.37L141.3-3.37 141.3 13.01 133.05 13.01 133.05-28.2 136.22-28.2 139.88-22.07Q140.42-23.61 141.36-24.87 142.3-26.12 143.53-27.01 144.77-27.91 146.24-28.39 147.72-28.88 149.36-28.88L149.36-28.88Q152.58-28.88 155.12-27.73 157.66-26.59 159.41-24.6 161.17-22.61 162.1-19.92 163.03-17.24 163.03-14.16ZM154.65-14.16L154.65-14.16Q154.65-15.23 154.54-16.44 154.43-17.65 154.16-18.85 153.9-20.04 153.42-21.14 152.94-22.24 152.21-23.08 151.48-23.93 150.44-24.43 149.4-24.93 148.04-24.93L148.04-24.93Q146.62-24.93 145.58-24.44 144.55-23.95 143.8-23.11 143.06-22.27 142.58-21.18 142.1-20.09 141.84-18.9 141.57-17.7 141.46-16.48 141.35-15.26 141.35-14.16L141.35-14.16Q141.35-13.18 141.49-12 141.64-10.82 141.96-9.62 142.28-8.42 142.79-7.3 143.3-6.18 144.05-5.3 144.79-4.42 145.78-3.89 146.77-3.37 148.04-3.37L148.04-3.37Q149.43-3.37 150.45-3.87 151.48-4.37 152.21-5.21 152.94-6.05 153.42-7.15 153.9-8.25 154.16-9.45 154.43-10.64 154.54-11.87 154.65-13.09 154.65-14.16Z" opacity="1" transform="matrix(1,0,0,1,0,0)" fill="#000000" class="wordmark-text-0" data-fill-palette-color="primary" id="text-0"></path></svg></g></svg></g></svg></g></svg></g><g transform="matrix(1,0,0,1,467.6551802310914,0)"><svg viewBox="0 0 221.30845362493866 177.28074540598618" height="177.28074540598618" width="221.30845362493866"><g><svg xmlns="http://www.w3.org/2000/svg" xmlns:xlink="http://www.w3.org/1999/xlink" version="1.1" x="0" y="0" viewBox="9.224 11.142 85.12499999999999 68.19000000000001" enable-background="new 0 0 100 100" xml:space="preserve" height="177.28074540598618" width="221.30845362493866" class="icon-icon-0" data-fill-palette-color="accent" id="icon-0"><g fill="#636365" data-fill-palette-color="accent"><g fill="#636365" data-fill-palette-color="accent"><path d="M22.958 79.083h57.658M82.941 79.331c1.234 0 2.324-1 2.324-2.238V52.198c0.93 0.211 1.283 0.334 1.957 0.334 3.905 0 6.816-4.028 7.014-6.667l0.113-1.245h-0.098c0.005 0 0.014-0.231-0.025-0.359-0.06-0.19-0.177-0.321-0.312-0.444L84.18 11.924c-0.143-0.469-0.576-0.782-1.068-0.782H20.464c-0.493 0-0.929 0.324-1.071 0.797l-9.59 31.799c-0.224 0.151-0.399 0.336-0.479 0.603-0.03 0.107-0.018 0.279-0.018 0.279H9.224l0.091 1.246c0.199 2.638 3.128 6.646 7.035 6.646 0.674 0 1.028-0.104 1.958-0.313v24.895c0 1.238 1.091 2.238 2.326 2.238M70.611 44.62l-4.199-31.618h6.708l6.993 31.618H70.611zM47.05 44.62l1.389-31.618h6.446l1.327 31.618H47.05zM23.523 44.62l6.919-31.618h6.751L32.911 44.62H23.523zM22.957 72.521V49.557c0.93 1.638 3.045 2.978 5.306 2.978 2.572 0 4.634-1.735 5.849-3.668 1.213 1.933 3.308 3.668 5.881 3.668 2.572 0 4.684-1.735 5.896-3.668 1.213 1.933 3.332 3.668 5.906 3.668 2.572 0 4.696-1.735 5.91-3.668 1.212 1.933 3.337 3.668 5.908 3.668 2.574 0 4.699-1.735 5.914-3.668 1.213 1.933 3.209 3.668 5.783 3.668 2.262 0 4.373-1.34 5.303-2.978v22.964H22.957L22.957 72.521z" fill="#000000" data-fill-palette-color="accent"></path></g></g><path d="M73 71.125C73 74.37 70.37 77 67.125 77l0 0c-3.245 0-5.875-2.63-5.875-5.875v-7.75c0-3.245 2.63-5.875 5.875-5.875l0 0C70.37 57.5 73 60.13 73 63.375V71.125z" fill="#000000" data-fill-palette-color="accent"></path><path d="M58 71.125C58 74.37 55.37 77 52.125 77l0 0c-3.245 0-5.875-2.63-5.875-5.875v-7.75c0-3.245 2.63-5.875 5.875-5.875l0 0C55.37 57.5 58 60.13 58 63.375V71.125z" fill="#000000" data-fill-palette-color="accent"></path><path d="M43 71.125C43 74.37 40.37 77 37.125 77l0 0c-3.245 0-5.875-2.63-5.875-5.875v-7.75c0-3.245 2.63-5.875 5.875-5.875l0 0C40.37 57.5 43 60.13 43 63.375V71.125z" fill="#000000" data-fill-palette-color="accent"></path></svg></g></svg></g></svg></g><defs></defs></svg><rect width="395.5199999999999" height="101.77326781463758" fill="none" stroke="none" visibility="hidden"></rect></g></svg></g></svg>